# xmcd
#
# Track frame offsets:
#	150
#	18063
#	31482
#	50151
#	67056
#	81182
#	94445
#	115553
#	132528
#	148327
#
# Disc length: 2188 seconds
#
# Revision: 1
# Processed by: cddbd v1.5.1PL2 Copyright (c) Steve Scherf et al.
# Submitted via: audiograbber 1.83.01
#
DISCID=92088a0a
DTITLE=Darren Watson - South Pacific Soul
DYEAR=2005
DGENRE=Soul
TTITLE0=That's All There Is (Take My Hand)
TTITLE1=This Fool's Advice
TTITLE2=All Going Wrong
TTITLE3=Got No Soul [with Rick Bryant]
TTITLE4=Sometimes A Man...
TTITLE5=Another Lonely Person
TTITLE6=Too Late (For My Baby)
TTITLE7=Such Sweet Lies
TTITLE8=Everybody's Friend
TTITLE9=Nothing About Her
EXTD=(C) 2005 Red Rocks Records Limited
EXTT0=
EXTT1=
EXTT2=
EXTT3=
EXTT4=
EXTT5=
EXTT6=
EXTT7=
EXTT8=
EXTT9=
PLAYORDER=
